<?xml version="1.0" encoding="UTF-8" standalone="no"?>
<svg
   xmlns:dc="http://purl.org/dc/elements/1.1/"
   xmlns:cc="http://creativecommons.org/ns#"
   xmlns:rdf="http://www.w3.org/1999/02/22-rdf-syntax-ns#"
   xmlns:svg="http://www.w3.org/2000/svg"
   xmlns="http://www.w3.org/2000/svg"
   xmlns:sodipodi="http://sodipodi.sourceforge.net/DTD/sodipodi-0.dtd"
   xmlns:inkscape="http://www.inkscape.org/namespaces/inkscape"
   viewBox="0 0 512 512"
   version="1.1"
   id="svg29"
   sodipodi:docname="database_icon.svg"
   width="512"
   height="512"
   inkscape:version="0.92+devel unknown">
  <metadata
     id="metadata35">
    <rdf:RDF>
      <cc:Work
         rdf:about="">
        <dc:format>image/svg+xml</dc:format>
        <dc:type
           rdf:resource="http://purl.org/dc/dcmitype/StillImage" />
        <dc:title></dc:title>
      </cc:Work>
    </rdf:RDF>
  </metadata>
  <defs
     id="defs33" />
  <sodipodi:namedview
     pagecolor="#ffffff"
     bordercolor="#666666"
     inkscape:document-rotation="0"
     borderopacity="1"
     objecttolerance="10"
     gridtolerance="10"
     guidetolerance="10"
     inkscape:pageopacity="0"
     inkscape:pageshadow="2"
     inkscape:window-width="640"
     inkscape:window-height="480"
     id="namedview31"
     showgrid="false"
     inkscape:zoom="0.77616018"
     inkscape:cx="373.44141"
     inkscape:cy="237.89081"
     inkscape:current-layer="svg29" />
  <g
     id="surface1"
     transform="matrix(7.5747213,0,0,7.5747213,-14.205304,29.855625)">
    <path
       style="fill:#c2cde7"
       d="m 4.6287881,17.957949 v 29 c 0,5.519531 11.1914059,10 24.9999999,10 13.808594,0 25,-4.480469 25,-10 v -29 z"
       id="path2"
       inkscape:connector-curvature="0" />
    <path
       style="fill:#ced8ed"
       d="M 11.628788,17.957949 H 4.6287881 v 29 c 0,2.691406 2.671875,5.140625 6.9999999,6.941406 z"
       id="path4"
       inkscape:connector-curvature="0" />
    <path
       style="fill:#b5c4e0"
       d="m 39.628788,17.957949 v 38.171875 c 8.828125,-1.550781 15,-5.070312 15,-9.171875 v -29 z"
       id="path6"
       inkscape:connector-curvature="0" />
    <path
       style="fill:#ced8ed"
       d="m 54.628788,16.957949 c 0,-5.523437 -11.191406,-10.0000003 -25,-10.0000003 -13.808594,0 -24.9999999,4.4765633 -24.9999999,10.0000003 0,5.523438 11.1914059,10 24.9999999,10 13.808594,0 25,-4.476562 25,-10 z"
       id="path8"
       inkscape:connector-curvature="0" />
    <path
       style="fill:#faefde"
       d="m 66.628788,16.957949 c 0,7.730469 -6.269531,14 -14,14 -7.730469,0 -14,-6.269531 -14,-14 0,-7.7304693 6.269531,-14.0000003 14,-14.0000003 7.730469,0 14,6.269531 14,14.0000003 z"
       id="path10"
       inkscape:connector-curvature="0" />
    <path
       style="fill:#8d6c9f"
       d="m 29.628788,9.9579487 c -0.921875,0 -1.824219,0.019531 -2.710937,0.058594 -0.550782,0 -1,0.449219 -1,1 0,0.554687 0.449218,1 1,1 0.921875,-0.03906 1.824218,-0.05859 2.710937,-0.05859 0.550781,0 1,-0.449219 1,-1 0,-0.550781 -0.449219,-1.0000021 -1,-1.0000021 z"
       id="path12"
       inkscape:connector-curvature="0" />
    <path
       style="fill:#8d6c9f"
       d="m 23.468632,10.278262 c -1.988281,0.195312 -3.957031,0.53125 -5.898438,1 -0.539062,0.136718 -0.863281,0.679687 -0.726562,1.214843 0.136719,0.535157 0.679687,0.859375 1.214844,0.726563 1.851562,-0.464844 3.734375,-0.800781 5.628906,-1 0.554687,-0.05859 0.953125,-0.554688 0.894531,-1.105469 -0.05469,-0.554687 -0.550781,-0.953125 -1.101562,-0.894531 z"
       id="path14"
       inkscape:connector-curvature="0" />
    <path
       style="fill:#8d6c9f"
       d="m 29.628788,43.957949 c -0.550781,0 -1,0.449219 -1,1 v 2 c 0,0.550781 0.449219,1 1,1 0.550781,0 1,-0.449219 1,-1 v -2 c 0,-0.550781 -0.449219,-1 -1,-1 z"
       id="path16"
       inkscape:connector-curvature="0" />
    <path
       style="fill:#8d6c9f"
       d="m 34.628788,43.75873 c -0.550781,0 -1,0.445313 -1,1 v 2 c 0,0.550782 0.449219,1 1,1 0.550781,0 1,-0.449218 1,-1 v -2 c 0,-0.554687 -0.449219,-1 -1,-1 z"
       id="path18"
       inkscape:connector-curvature="0" />
    <path
       style="fill:#8d6c9f"
       d="m 39.628788,43.059512 c -0.550781,0 -1,0.445312 -1,1 v 2 c 0,0.550781 0.449219,1 1,1 0.550781,0 1,-0.449219 1,-1 v -2 c 0,-0.554688 -0.449219,-1 -1,-1 z"
       id="path20"
       inkscape:connector-curvature="0" />
    <path
       style="fill:#8d6c9f"
       d="m 44.628788,41.957949 c -0.550781,0 -1,0.449219 -1,1 v 2 c 0,0.550781 0.449219,1 1,1 0.550781,0 1,-0.449219 1,-1 v -2 c 0,-0.550781 -0.449219,-1 -1,-1 z"
       id="path22"
       inkscape:connector-curvature="0" />
    <path
       style="fill:#8d6c9f"
       d="M 67.628788,16.957949 C 67.617069,10.711855 63.738163,5.1220117 57.886601,2.9345117 52.035038,0.74310473 45.437382,2.4110737 41.328007,7.1181047 37.480351,6.3329487 33.558476,5.9423237 29.628788,5.9579487 c -14.578125,0 -25.9999999,4.8281253 -25.9999999,11.0000003 v 30 c 0,6.171875 11.4218749,11 25.9999999,11 14.578125,0 26,-4.828125 26,-11 V 31.657168 c 6.984375,-1.425781 12,-7.570313 12,-14.699219 z M 49.839726,31.688418 c -4.082032,2.441406 -11.210938,4.269531 -20.210938,4.269531 -14.359375,0 -23.9999999,-4.648437 -23.9999999,-9 v -5.691406 c 3.890625,3.972656 13.0507809,6.691406 23.9999999,6.691406 3.921875,0.01172 7.835938,-0.375 11.679688,-1.160156 2.214843,2.542969 5.21875,4.265625 8.53125,4.890625 z m 3.789062,5.269531 c 0,1.730469 -1.53125,3.519531 -4.320312,5 -0.484375,0.277344 -0.65625,0.894531 -0.378907,1.378906 0.273438,0.488282 0.894532,0.65625 1.378907,0.382813 1.21875,-0.640625 2.335937,-1.457031 3.320312,-2.421875 v 5.660156 c 0,4.351563 -9.640625,9 -24,9 -14.359375,0 -23.9999999,-4.648437 -23.9999999,-9 v -5.710937 c 3.210938,3.300781 10.0781249,5.78125 18.8593749,6.5 h 0.08203 c 0.550782,0.02344 1.015625,-0.40625 1.039063,-0.960938 0.02344,-0.550781 -0.40625,-1.015625 -0.960938,-1.039062 C 13.808476,44.868105 5.6287881,41.079043 5.6287881,36.957949 v -5.691406 c 3.890625,3.972656 13.0507809,6.691406 23.9999999,6.691406 10.300781,0 19,-2.421875 23.238281,-6 h 0.761719 z m -1,-7 c -5.226562,0.01563 -9.953125,-3.101562 -12,-7.910156 -0.128906,-0.34375 -0.4375,-0.585938 -0.800781,-0.636719 -0.363281,-0.05078 -0.722656,0.105469 -0.941406,0.398438 -0.214844,0.296875 -0.253907,0.6875 -0.09766,1.019531 0.328125,0.765625 0.71875,1.507812 1.167969,2.207031 -3.40625,0.625 -6.863281,0.929688 -10.328125,0.921875 -14.359375,0 -23.9999999,-4.648437 -23.9999999,-9 0,-4.351562 9.6406249,-9.0000003 23.9999999,-9.0000003 3.480469,-0.011719 6.957031,0.296875 10.378906,0.921875 -1.136718,1.7695313 -1.886718,3.7656253 -2.199218,5.8476563 l -2.480469,-2.480468 c -0.394531,-0.339844 -0.988281,-0.316407 -1.355469,0.05469 -0.371094,0.367188 -0.394531,0.960938 -0.05469,1.355469 l 4,4 c 0.1875,0.191406 0.445312,0.296875 0.710937,0.296875 0.265625,0 0.523438,-0.105469 0.710938,-0.296875 l 4,-4 c 0.339843,-0.394531 0.316406,-0.988281 -0.05469,-1.355469 -0.367187,-0.371094 -0.960937,-0.394531 -1.355469,-0.05469 l -2,2 C 41.351436,7.5712297 47.699093,3.1298237 54.460811,4.0868547 61.22253,5.0399797 66.093624,11.063418 65.609249,17.875918 65.12878,24.688418 59.456905,29.965762 52.62878,29.957949 Z"
       id="path24"
       inkscape:connector-curvature="0" />
    <path
       style="fill:#8d6c9f"
       d="m 59.628788,15.957949 h -6 V 9.9579487 c 0,-0.550781 -0.449219,-1 -1,-1 -0.550781,0 -1,0.449219 -1,1 v 7.0000003 c 0,0.550781 0.449219,1 1,1 h 7 c 0.550781,0 1,-0.449219 1,-1 0,-0.550781 -0.449219,-1 -1,-1 z"
       id="path26"
       inkscape:connector-curvature="0" />
  </g>
</svg>
