<?xml version="1.0" encoding="UTF-8" standalone="no"?>
<!-- Created with Inkscape (http://www.inkscape.org/) -->

<svg
   xmlns:dc="http://purl.org/dc/elements/1.1/"
   xmlns:cc="http://creativecommons.org/ns#"
   xmlns:rdf="http://www.w3.org/1999/02/22-rdf-syntax-ns#"
   xmlns:svg="http://www.w3.org/2000/svg"
   xmlns="http://www.w3.org/2000/svg"
   xmlns:sodipodi="http://sodipodi.sourceforge.net/DTD/sodipodi-0.dtd"
   xmlns:inkscape="http://www.inkscape.org/namespaces/inkscape"
   width="512"
   height="512"
   viewBox="0 0 135.46666 135.46667"
   version="1.1"
   id="svg1179"
   inkscape:version="0.92.2 (5c3e80d, 2017-08-06)"
   sodipodi:docname="icon_chat.svg"
   inkscape:export-filename="/home/m2/www/ejemplo/linuxitos_chat/images/favicon.png"
   inkscape:export-xdpi="90"
   inkscape:export-ydpi="90">
  <defs
     id="defs1173" />
  <sodipodi:namedview
     id="base"
     pagecolor="#ffffff"
     bordercolor="#666666"
     borderopacity="1.0"
     inkscape:pageopacity="0.0"
     inkscape:pageshadow="2"
     inkscape:zoom="0.7"
     inkscape:cx="33.090187"
     inkscape:cy="216.68254"
     inkscape:document-units="mm"
     inkscape:current-layer="layer1"
     showgrid="false"
     units="px" />
  <metadata
     id="metadata1176">
    <rdf:RDF>
      <cc:Work
         rdf:about="">
        <dc:format>image/svg+xml</dc:format>
        <dc:type
           rdf:resource="http://purl.org/dc/dcmitype/StillImage" />
        <dc:title></dc:title>
      </cc:Work>
    </rdf:RDF>
  </metadata>
  <g
     inkscape:label="Capa 1"
     inkscape:groupmode="layer"
     id="layer1"
     transform="translate(0,-161.53331)">
    <path
       d="m 109.94859,247.29723 c 0,8.03723 7.85563,20.82601 18.82104,27.22137 -16.44906,0 -29.60295,-5.2963 -39.64708,-12.05677 1.458361,-1.09704 2.92054,-2.19229 4.386546,-3.47099 9.497484,-8.76728 15.892844,-21.37456 15.892844,-35.80715 0,-14.4364 -6.39536,-27.22137 -15.892844,-35.8091 -6.393457,-5.66522 -13.884031,-9.50132 -21.558085,-11.69166 0.548558,-0.1837 1.278689,-0.1837 1.827244,-0.1837 13.151983,0 25.025276,4.93127 33.614865,12.78692 8.76925,7.85945 14.06751,18.63371 14.06751,30.69243 0,10.78383 -4.20305,20.64629 -11.51204,28.31848 v 0"
       style="fill:#7fd2f5;fill-opacity:1;fill-rule:evenodd;stroke:none;stroke-width:0.19113478"
       id="path20"
       inkscape:connector-curvature="0" />
    <path
       d="m 21.707428,250.407 c 0,7.8537 -7.490568,20.27939 -18.0909012,26.4875 17.1772772,0 30.6962342,-6.02652 40.7422742,-13.33742 4.021477,1.09898 8.226441,1.64559 12.423758,1.64559 12.788821,0 24.300868,-4.75155 32.705062,-12.42366 8.402281,-7.49053 13.518959,-18.08905 13.518959,-29.59532 0,-11.69361 -5.116678,-22.10665 -13.518959,-29.78258 -8.404194,-7.67219 -19.916241,-12.23844 -32.705062,-12.23844 -12.607244,0 -24.111645,4.56625 -32.513927,12.23844 -8.409925,7.67593 -13.520869,18.08897 -13.520869,29.78258 0,10.4111 4.199231,19.91242 10.959665,27.22331 v 0"
       style="fill:#6a6c6c;fill-opacity:1;fill-rule:evenodd;stroke:none;stroke-width:0.19113478"
       id="path22"
       inkscape:connector-curvature="0" />
    <g
       id="g4401"
       transform="matrix(0.05477415,0,0,0.05477415,105.64601,124.65642)"
       style="fill:#ffffff"
       inkscape:export-xdpi="90"
       inkscape:export-ydpi="90">
      <path
         style="fill:#ffffff"
         d="m -803.81083,2231.1691 c 39.76,-122.2475 51.6886,-211.7495 52.23395,-391.9237 0.41607,-137.9519 -7.47813,-206.3977 -33.6408,-291.6209 -13.57801,-44.2283 -22.34224,-55.0105 -32.00623,-39.3744 -2.39983,3.8836 -7.66758,93.3202 -11.70421,198.748 -4.03737,105.4271 -10.71605,216.645 -14.84184,247.1504 -11.11354,82.1821 -33.44018,107.6717 -65.88923,75.2226 -19.84063,-19.8406 -28.87605,-73.1578 -37.88769,-223.5599 -13.54904,-226.153 -31.59016,-350.9897 -55.43772,-383.603 -15.9147,-21.7642 -22.2791,-6.4149 -24.5214,59.1385 -10.0741,294.6099 -33.1452,421.6749 -92.2978,508.3432 -25.8395,37.8587 -54.1256,53.8759 -95.1435,53.8759 -38.8736,0 -64.6611,-13.5364 -99.7254,-52.3484 -51.9071,-57.4548 -79.7452,-149.1293 -56.3011,-185.4062 5.3176,-8.2278 7.2516,-3.3672 7.389,18.5746 0.3492,55.4109 55.7029,145.8803 104.7926,171.2658 49.6164,25.6574 90.6276,5.8666 120.4896,-58.1437 36.2591,-77.7249 50.9092,-172.6893 70.4801,-456.8559 5.3599,-77.823 9.5956,-101.6527 20.1408,-113.3049 45.4721,-50.2458 101.06132,44.18 118.16034,200.7095 2.45556,22.4752 9.46189,120.6084 15.5707,218.073 6.1088,97.4652 12.96505,180.215 15.23561,183.8883 8.33181,13.4822 17.54555,6.0628 21.69139,-17.4675 2.33966,-13.2809 7.30502,-119.4346 11.03331,-235.8972 3.72903,-116.4626 10.47086,-224.2487 14.98225,-239.5244 16.32409,-55.272 58.66447,-50.8141 89.38906,9.4121 19.7314,38.676 48.84371,150.3092 60.01001,230.1123 13.03118,93.1248 10.98278,266.4947 -3.99354,338.0574 -13.54087,64.7019 -47.88081,146.2451 -72.74697,172.7436 -18.72318,19.9528 -31.34052,21.7931 -25.46129,3.7149 z m 165.67783,-307.02 c -15.10039,-11.8773 -19.57687,-21.9477 -19.57687,-44.0396 0,-51.384 49.22561,-73.2188 108.87899,-48.2939 33.77825,14.1137 31.31526,14.6709 40.36628,-9.135 12.04302,-31.6756 9.58449,-111.7878 -4.07006,-132.6269 -20.95733,-31.9855 -83.19183,-17.7009 -90.90474,20.8652 -4.52403,22.6193 -14.80914,23.869 -27.73482,3.3709 -18.89555,-29.9653 42.50607,-86.7946 93.7786,-86.7946 66.80311,0 96.71264,82.4281 68.79802,189.6019 -10.80001,41.4622 -10.68782,44.7179 1.85745,53.9101 13.97923,10.2435 19.22469,6.3986 44.66518,-32.7381 8.78355,-13.5126 9.3289,-13.4985 20.43204,0.5424 17.62951,22.2888 14.40273,61.2709 -6.8295,82.5031 -22.25978,22.259 -49.82074,23.3059 -82.46296,3.1317 l -24.44118,-15.1049 -24.7302,15.0774 c -32.11545,19.5798 -72.93643,19.4691 -98.02623,-0.2675 z m 65.38252,-21.5658 c 10.48201,-3.9854 19.05826,-11.9383 19.05826,-17.6734 0,-12.78 -40.07354,-30.4088 -55.59,-24.4545 -13.48663,5.1756 -14.8188,28.0008 -2.36269,40.4576 10.79258,10.7926 14.48372,10.9509 38.89443,1.6703 z"
         id="path4403"
         inkscape:connector-curvature="0"
         sodipodi:nodetypes="ssscssssssssscssssssscsssssscscssscsssscscsscscccscsc" />
    </g>
  </g>
</svg>
